<mxfile host="app.diagrams.net" agent="Mozilla/5.0 (Windows NT 10.0; Win64; x64) AppleWebKit/537.36 (KHTML, like Gecko) Chrome/139.0.0.0 Safari/537.36" version="28.1.0">
  <diagram name="Page-1" id="6uOSpxt3UpFVZuMUfjd0">
    <mxGraphModel dx="1659" dy="969" grid="1" gridSize="10" guides="1" tooltips="1" connect="1" arrows="1" fold="1" page="1" pageScale="1" pageWidth="827" pageHeight="1169" math="0" shadow="0">
      <root>
        <mxCell id="0" />
        <mxCell id="1" parent="0" />
        <mxCell id="wh5Xv0PQb1zOc8OhENQk-41" value="Start" style="whiteSpace=wrap;strokeWidth=2;shape=ellipse;perimeter=ellipsePerimeter;html=1;" vertex="1" parent="1">
          <mxGeometry x="136" y="60" width="95" height="54" as="geometry" />
        </mxCell>
        <mxCell id="wh5Xv0PQb1zOc8OhENQk-42" value="Check IGN" style="whiteSpace=wrap;strokeWidth=2;" vertex="1" parent="1">
          <mxGeometry x="117" y="164" width="133" height="54" as="geometry" />
        </mxCell>
        <mxCell id="wh5Xv0PQb1zOc8OhENQk-58" value="" style="edgeStyle=orthogonalEdgeStyle;rounded=0;orthogonalLoop=1;jettySize=auto;html=1;" edge="1" parent="1" source="wh5Xv0PQb1zOc8OhENQk-43" target="wh5Xv0PQb1zOc8OhENQk-45">
          <mxGeometry relative="1" as="geometry" />
        </mxCell>
        <mxCell id="wh5Xv0PQb1zOc8OhENQk-59" value="No" style="edgeLabel;html=1;align=center;verticalAlign=middle;resizable=0;points=[];" vertex="1" connectable="0" parent="wh5Xv0PQb1zOc8OhENQk-58">
          <mxGeometry x="-0.2394" y="-1" relative="1" as="geometry">
            <mxPoint as="offset" />
          </mxGeometry>
        </mxCell>
        <mxCell id="wh5Xv0PQb1zOc8OhENQk-61" style="edgeStyle=orthogonalEdgeStyle;rounded=0;orthogonalLoop=1;jettySize=auto;html=1;" edge="1" parent="1" source="wh5Xv0PQb1zOc8OhENQk-43" target="wh5Xv0PQb1zOc8OhENQk-44">
          <mxGeometry relative="1" as="geometry" />
        </mxCell>
        <mxCell id="wh5Xv0PQb1zOc8OhENQk-62" value="Yes" style="edgeLabel;html=1;align=center;verticalAlign=middle;resizable=0;points=[];" vertex="1" connectable="0" parent="wh5Xv0PQb1zOc8OhENQk-61">
          <mxGeometry x="-0.0426" y="2" relative="1" as="geometry">
            <mxPoint as="offset" />
          </mxGeometry>
        </mxCell>
        <mxCell id="wh5Xv0PQb1zOc8OhENQk-43" value="IGN = 0?" style="rhombus;strokeWidth=2;whiteSpace=wrap;" vertex="1" parent="1">
          <mxGeometry x="128" y="268" width="112" height="112" as="geometry" />
        </mxCell>
        <mxCell id="wh5Xv0PQb1zOc8OhENQk-72" style="edgeStyle=orthogonalEdgeStyle;rounded=0;orthogonalLoop=1;jettySize=auto;html=1;entryX=0;entryY=0.5;entryDx=0;entryDy=0;" edge="1" parent="1" source="wh5Xv0PQb1zOc8OhENQk-44" target="wh5Xv0PQb1zOc8OhENQk-48">
          <mxGeometry relative="1" as="geometry">
            <Array as="points">
              <mxPoint x="180" y="1077" />
            </Array>
          </mxGeometry>
        </mxCell>
        <mxCell id="wh5Xv0PQb1zOc8OhENQk-44" value="ALARM OFF" style="whiteSpace=wrap;strokeWidth=2;shape=parallelogram;perimeter=parallelogramPerimeter;html=1;fixedSize=1;" vertex="1" parent="1">
          <mxGeometry x="114" y="870" width="140" height="54" as="geometry" />
        </mxCell>
        <mxCell id="wh5Xv0PQb1zOc8OhENQk-60" value="" style="edgeStyle=orthogonalEdgeStyle;rounded=0;orthogonalLoop=1;jettySize=auto;html=1;" edge="1" parent="1" source="wh5Xv0PQb1zOc8OhENQk-45" target="wh5Xv0PQb1zOc8OhENQk-46">
          <mxGeometry relative="1" as="geometry" />
        </mxCell>
        <mxCell id="wh5Xv0PQb1zOc8OhENQk-45" value="Check driver &amp; passenger seats" style="whiteSpace=wrap;strokeWidth=2;shape=parallelogram;perimeter=parallelogramPerimeter;html=1;fixedSize=1;" vertex="1" parent="1">
          <mxGeometry x="390" y="285" width="260" height="78" as="geometry" />
        </mxCell>
        <mxCell id="wh5Xv0PQb1zOc8OhENQk-63" style="edgeStyle=orthogonalEdgeStyle;rounded=0;orthogonalLoop=1;jettySize=auto;html=1;entryX=1;entryY=0.5;entryDx=0;entryDy=0;" edge="1" parent="1" source="wh5Xv0PQb1zOc8OhENQk-46" target="wh5Xv0PQb1zOc8OhENQk-44">
          <mxGeometry relative="1" as="geometry">
            <Array as="points">
              <mxPoint x="320" y="897" />
            </Array>
          </mxGeometry>
        </mxCell>
        <mxCell id="wh5Xv0PQb1zOc8OhENQk-64" value="No" style="edgeLabel;html=1;align=center;verticalAlign=middle;resizable=0;points=[];" vertex="1" connectable="0" parent="wh5Xv0PQb1zOc8OhENQk-63">
          <mxGeometry x="0.1981" y="-1" relative="1" as="geometry">
            <mxPoint as="offset" />
          </mxGeometry>
        </mxCell>
        <mxCell id="wh5Xv0PQb1zOc8OhENQk-67" style="edgeStyle=orthogonalEdgeStyle;rounded=0;orthogonalLoop=1;jettySize=auto;html=1;" edge="1" parent="1" source="wh5Xv0PQb1zOc8OhENQk-46" target="wh5Xv0PQb1zOc8OhENQk-47">
          <mxGeometry relative="1" as="geometry" />
        </mxCell>
        <mxCell id="wh5Xv0PQb1zOc8OhENQk-68" value="Yes" style="edgeLabel;html=1;align=center;verticalAlign=middle;resizable=0;points=[];" vertex="1" connectable="0" parent="wh5Xv0PQb1zOc8OhENQk-67">
          <mxGeometry x="0.0326" y="2" relative="1" as="geometry">
            <mxPoint as="offset" />
          </mxGeometry>
        </mxCell>
        <mxCell id="wh5Xv0PQb1zOc8OhENQk-46" value="Any seat occupied AND belt unfastened?" style="rhombus;strokeWidth=2;whiteSpace=wrap;" vertex="1" parent="1">
          <mxGeometry x="381" y="460" width="278" height="278" as="geometry" />
        </mxCell>
        <mxCell id="wh5Xv0PQb1zOc8OhENQk-71" style="edgeStyle=orthogonalEdgeStyle;rounded=0;orthogonalLoop=1;jettySize=auto;html=1;entryX=1;entryY=0.5;entryDx=0;entryDy=0;" edge="1" parent="1" target="wh5Xv0PQb1zOc8OhENQk-48">
          <mxGeometry relative="1" as="geometry">
            <mxPoint x="521" y="934" as="sourcePoint" />
            <mxPoint x="430" y="1077" as="targetPoint" />
            <Array as="points">
              <mxPoint x="521" y="1077" />
            </Array>
          </mxGeometry>
        </mxCell>
        <mxCell id="wh5Xv0PQb1zOc8OhENQk-47" value="ALARM ON" style="whiteSpace=wrap;strokeWidth=2;shape=parallelogram;perimeter=parallelogramPerimeter;html=1;fixedSize=1;" vertex="1" parent="1">
          <mxGeometry x="453.5" y="880" width="133" height="54" as="geometry" />
        </mxCell>
        <mxCell id="wh5Xv0PQb1zOc8OhENQk-48" value="End" style="whiteSpace=wrap;strokeWidth=2;shape=ellipse;perimeter=ellipsePerimeter;html=1;" vertex="1" parent="1">
          <mxGeometry x="280" y="1050" width="86" height="54" as="geometry" />
        </mxCell>
        <mxCell id="wh5Xv0PQb1zOc8OhENQk-49" value="" style="curved=1;startArrow=none;endArrow=block;exitX=0.5;exitY=1;entryX=0.5;entryY=0;rounded=0;" edge="1" parent="1" source="wh5Xv0PQb1zOc8OhENQk-41" target="wh5Xv0PQb1zOc8OhENQk-42">
          <mxGeometry relative="1" as="geometry">
            <Array as="points" />
          </mxGeometry>
        </mxCell>
        <mxCell id="wh5Xv0PQb1zOc8OhENQk-50" value="" style="curved=1;startArrow=none;endArrow=block;exitX=0.5;exitY=1;entryX=0.49;entryY=0;rounded=0;" edge="1" parent="1" source="wh5Xv0PQb1zOc8OhENQk-42" target="wh5Xv0PQb1zOc8OhENQk-43">
          <mxGeometry relative="1" as="geometry">
            <Array as="points" />
          </mxGeometry>
        </mxCell>
      </root>
    </mxGraphModel>
  </diagram>
</mxfile>
